<?xml version="1.0" encoding="UTF-8"?>
<svg version="1.1" xmlns="http://www.w3.org/2000/svg" width="133" height="133">
<path d="M0 0 C0.82777954 0.33903351 1.65555908 0.67806702 2.50842285 1.02737427 C4.24369858 1.73942962 5.97802602 2.45380009 7.71142578 3.17041016 C10.3349612 4.25418188 12.96212053 5.32877179 15.58984375 6.40234375 C23.82144995 9.78104925 31.99787072 13.16144377 39.84375 17.3828125 C39.84375 19.6928125 39.84375 22.0028125 39.84375 24.3828125 C36.43431247 26.29341517 33.21213121 27.6329126 29.42578125 28.5234375 C28.64654297 28.70777344 27.86730469 28.89210937 27.06445312 29.08203125 C25.45115032 29.45101048 23.83373957 29.80244295 22.21289062 30.13671875 C19.90916595 30.69972378 17.94128283 31.27375286 15.84375 32.3828125 C13.74971881 35.53887475 13.74971881 35.53887475 12.84375 39.3828125 C12.56857544 40.33559082 12.56857544 40.33559082 12.2878418 41.30761719 C11.74628979 43.24148744 11.25633765 45.18162947 10.78125 47.1328125 C9.85288605 50.94320592 9.05691619 54.06306322 6.84375 57.3828125 C3.21875 57.5703125 3.21875 57.5703125 -0.15625 57.3828125 C-5.67542764 47.11284573 -10.04748233 36.37963345 -14.40917969 25.58105469 C-15.2463348 23.51799507 -16.09216943 21.45843794 -16.94628906 19.40234375 C-18.19111217 16.40565289 -19.41075139 13.39981284 -20.625 10.390625 C-21.20284241 9.01706345 -21.20284241 9.01706345 -21.7923584 7.61575317 C-23.40003469 3.55484716 -24.29203664 1.20033324 -23.56445312 -3.18017578 C-19.32593455 -10.51528196 -6.0632181 -2.51011267 0 0 Z M-14.15625 3.3828125 C-11.43149223 12.10793937 -7.9339465 20.49545649 -4.46875 28.9453125 C-3.8558565 30.44585603 -3.24322412 31.94650624 -2.63085938 33.44726562 C-1.14233128 37.09368513 0.34972588 40.73864159 1.84375 44.3828125 C2.50375 44.3828125 3.16375 44.3828125 3.84375 44.3828125 C4.12089844 43.33480469 4.39804688 42.28679687 4.68359375 41.20703125 C5.04942952 39.82811183 5.41531767 38.4492063 5.78125 37.0703125 C5.96365234 36.38001953 6.14605469 35.68972656 6.33398438 34.97851562 C7.1030761 32.08393406 7.89636576 29.22496521 8.84375 26.3828125 C10.84765625 25.50390625 10.84765625 25.50390625 13.40625 24.8203125 C14.30214844 24.57539062 15.19804688 24.33046875 16.12109375 24.078125 C17.46880859 23.73394531 17.46880859 23.73394531 18.84375 23.3828125 C19.64941406 23.17398438 20.45507812 22.96515625 21.28515625 22.75 C23.13450788 22.28021837 24.98866266 21.8294076 26.84375 21.3828125 C26.84375 20.7228125 26.84375 20.0628125 26.84375 19.3828125 C21.6490148 17.26146407 16.45286294 15.14363816 11.25537109 13.02905273 C9.48772509 12.30931502 7.72046893 11.5886191 5.95361328 10.86694336 C3.41280556 9.82933976 0.87061232 8.79519875 -1.671875 7.76171875 C-2.46055969 7.43877335 -3.24924438 7.11582794 -4.06182861 6.78309631 C-4.80229431 6.48286057 -5.54276001 6.18262482 -6.30566406 5.87329102 C-7.27829193 5.47691185 -7.27829193 5.47691185 -8.27056885 5.07252502 C-10.21149445 4.36260612 -12.14395069 3.84815453 -14.15625 3.3828125 Z " fill="#000000" transform="translate(82.15625,64.6171875)"/>
</svg>
